<?xml version="1.0" encoding="UTF-8" standalone="no"?><svg xmlns="http://www.w3.org/2000/svg" xmlns:xlink="http://www.w3.org/1999/xlink" contentScriptType="application/ecmascript" contentStyleType="text/css" height="497px" preserveAspectRatio="none" style="width:927px;height:497px;" version="1.1" viewBox="0 0 927 497" width="927px" zoomAndPan="magnify"><defs><filter height="300%" id="f1uggmn22198ps" width="300%" x="-1" y="-1"><feGaussianBlur result="blurOut" stdDeviation="2.0"/><feColorMatrix in="blurOut" result="blurOut2" type="matrix" values="0 0 0 0 0 0 0 0 0 0 0 0 0 0 0 0 0 0 .4 0"/><feOffset dx="4.0" dy="4.0" in="blurOut2" result="blurOut3"/><feBlend in="SourceGraphic" in2="blurOut3" mode="normal"/></filter></defs><g><line style="stroke: #A80036; stroke-width: 1.0; stroke-dasharray: 5.0,5.0;" x1="27" x2="27" y1="86.2969" y2="410.4922"/><line style="stroke: #A80036; stroke-width: 1.0; stroke-dasharray: 5.0,5.0;" x1="226" x2="226" y1="86.2969" y2="410.4922"/><line style="stroke: #A80036; stroke-width: 1.0; stroke-dasharray: 5.0,5.0;" x1="317" x2="317" y1="86.2969" y2="410.4922"/><line style="stroke: #A80036; stroke-width: 1.0; stroke-dasharray: 5.0,5.0;" x1="528" x2="528" y1="86.2969" y2="410.4922"/><line style="stroke: #A80036; stroke-width: 1.0; stroke-dasharray: 5.0,5.0;" x1="843" x2="843" y1="86.2969" y2="410.4922"/><line style="stroke: #A80036; stroke-width: 1.0; stroke-dasharray: 5.0,5.0;" x1="898" x2="898" y1="86.2969" y2="410.4922"/><text fill="#000000" font-family="sans-serif" font-size="14" lengthAdjust="spacingAndGlyphs" textLength="32" x="8" y="82.9951">User</text><ellipse cx="27" cy="13" fill="#FEFECE" filter="url(#f1uggmn22198ps)" rx="8" ry="8" style="stroke: #A80036; stroke-width: 2.0;"/><path d="M27,21 L27,48 M14,29 L40,29 M27,48 L14,63 M27,48 L40,63 " fill="none" filter="url(#f1uggmn22198ps)" style="stroke: #A80036; stroke-width: 2.0;"/><text fill="#000000" font-family="sans-serif" font-size="14" lengthAdjust="spacingAndGlyphs" textLength="32" x="8" y="422.4873">User</text><ellipse cx="27" cy="435.7891" fill="#FEFECE" filter="url(#f1uggmn22198ps)" rx="8" ry="8" style="stroke: #A80036; stroke-width: 2.0;"/><path d="M27,443.7891 L27,470.7891 M14,451.7891 L40,451.7891 M27,470.7891 L14,485.7891 M27,470.7891 L40,485.7891 " fill="none" filter="url(#f1uggmn22198ps)" style="stroke: #A80036; stroke-width: 2.0;"/><text fill="#000000" font-family="sans-serif" font-size="14" lengthAdjust="spacingAndGlyphs" textLength="74" x="186" y="82.9951">InOutNode</text><ellipse cx="226" cy="54" fill="#FEFECE" filter="url(#f1uggmn22198ps)" rx="12" ry="12" style="stroke: #A80036; stroke-width: 2.0;"/><line style="stroke: #A80036; stroke-width: 2.0;" x1="214" x2="238" y1="68" y2="68"/><text fill="#000000" font-family="sans-serif" font-size="14" lengthAdjust="spacingAndGlyphs" textLength="74" x="186" y="422.4873">InOutNode</text><ellipse cx="226" cy="441.7891" fill="#FEFECE" filter="url(#f1uggmn22198ps)" rx="12" ry="12" style="stroke: #A80036; stroke-width: 2.0;"/><line style="stroke: #A80036; stroke-width: 2.0;" x1="214" x2="238" y1="455.7891" y2="455.7891"/><text fill="#000000" font-family="sans-serif" font-size="14" lengthAdjust="spacingAndGlyphs" textLength="77" x="276" y="82.9951">Graph Area</text><ellipse cx="317.5" cy="54" fill="#FEFECE" filter="url(#f1uggmn22198ps)" rx="12" ry="12" style="stroke: #A80036; stroke-width: 2.0;"/><line style="stroke: #A80036; stroke-width: 2.0;" x1="305.5" x2="329.5" y1="68" y2="68"/><text fill="#000000" font-family="sans-serif" font-size="14" lengthAdjust="spacingAndGlyphs" textLength="77" x="276" y="422.4873">Graph Area</text><ellipse cx="317.5" cy="441.7891" fill="#FEFECE" filter="url(#f1uggmn22198ps)" rx="12" ry="12" style="stroke: #A80036; stroke-width: 2.0;"/><line style="stroke: #A80036; stroke-width: 2.0;" x1="305.5" x2="329.5" y1="455.7891" y2="455.7891"/><text fill="#000000" font-family="sans-serif" font-size="14" lengthAdjust="spacingAndGlyphs" textLength="59" x="496" y="82.9951">Reducer</text><ellipse cx="528.5" cy="54" fill="#FEFECE" filter="url(#f1uggmn22198ps)" rx="12" ry="12" style="stroke: #A80036; stroke-width: 2.0;"/><polygon fill="#A80036" points="524.5,42,530.5,37,528.5,42,530.5,47,524.5,42" style="stroke: #A80036; stroke-width: 1.0;"/><text fill="#000000" font-family="sans-serif" font-size="14" lengthAdjust="spacingAndGlyphs" textLength="59" x="496" y="422.4873">Reducer</text><ellipse cx="528.5" cy="441.7891" fill="#FEFECE" filter="url(#f1uggmn22198ps)" rx="12" ry="12" style="stroke: #A80036; stroke-width: 2.0;"/><polygon fill="#A80036" points="524.5,429.7891,530.5,424.7891,528.5,429.7891,530.5,434.7891,524.5,429.7891" style="stroke: #A80036; stroke-width: 1.0;"/><text fill="#000000" font-family="sans-serif" font-size="14" lengthAdjust="spacingAndGlyphs" textLength="37" x="822" y="82.9951">Store</text><path d="M825.5,34 C825.5,24 843.5,24 843.5,24 C843.5,24 861.5,24 861.5,34 L861.5,60 C861.5,70 843.5,70 843.5,70 C843.5,70 825.5,70 825.5,60 L825.5,34 " fill="#FEFECE" filter="url(#f1uggmn22198ps)" style="stroke: #000000; stroke-width: 1.5;"/><path d="M825.5,34 C825.5,44 843.5,44 843.5,44 C843.5,44 861.5,44 861.5,34 " fill="none" style="stroke: #000000; stroke-width: 1.5;"/><text fill="#000000" font-family="sans-serif" font-size="14" lengthAdjust="spacingAndGlyphs" textLength="37" x="822" y="422.4873">Store</text><path d="M825.5,435.7891 C825.5,425.7891 843.5,425.7891 843.5,425.7891 C843.5,425.7891 861.5,425.7891 861.5,435.7891 L861.5,461.7891 C861.5,471.7891 843.5,471.7891 843.5,471.7891 C843.5,471.7891 825.5,471.7891 825.5,461.7891 L825.5,435.7891 " fill="#FEFECE" filter="url(#f1uggmn22198ps)" style="stroke: #000000; stroke-width: 1.5;"/><path d="M825.5,435.7891 C825.5,445.7891 843.5,445.7891 843.5,445.7891 C843.5,445.7891 861.5,445.7891 861.5,435.7891 " fill="none" style="stroke: #000000; stroke-width: 1.5;"/><text fill="#000000" font-family="sans-serif" font-size="14" lengthAdjust="spacingAndGlyphs" textLength="40" x="875" y="82.9951">React</text><ellipse cx="898" cy="54" fill="#FEFECE" filter="url(#f1uggmn22198ps)" rx="12" ry="12" style="stroke: #A80036; stroke-width: 2.0;"/><polygon fill="#A80036" points="894,42,900,37,898,42,900,47,894,42" style="stroke: #A80036; stroke-width: 1.0;"/><text fill="#000000" font-family="sans-serif" font-size="14" lengthAdjust="spacingAndGlyphs" textLength="40" x="875" y="422.4873">React</text><ellipse cx="898" cy="441.7891" fill="#FEFECE" filter="url(#f1uggmn22198ps)" rx="12" ry="12" style="stroke: #A80036; stroke-width: 2.0;"/><polygon fill="#A80036" points="894,429.7891,900,424.7891,898,429.7891,900,434.7891,894,429.7891" style="stroke: #A80036; stroke-width: 1.0;"/><polygon fill="#A80036" points="214,113.4297,224,117.4297,214,121.4297,218,117.4297" style="stroke: #A80036; stroke-width: 1.0;"/><line style="stroke: #A80036; stroke-width: 1.0;" x1="27" x2="220" y1="117.4297" y2="117.4297"/><text fill="#000000" font-family="sans-serif" font-size="13" lengthAdjust="spacingAndGlyphs" textLength="104" x="34" y="112.3638">Click on out port</text><polygon fill="#A80036" points="516.5,142.5625,526.5,146.5625,516.5,150.5625,520.5,146.5625" style="stroke: #A80036; stroke-width: 1.0;"/><line style="stroke: #A80036; stroke-width: 1.0;" x1="226" x2="522.5" y1="146.5625" y2="146.5625"/><text fill="#000000" font-family="sans-serif" font-size="13" lengthAdjust="spacingAndGlyphs" textLength="265" x="233" y="141.4966">OUTPORT_DRAG_STARTED(nodeIx, portIx)</text><polygon fill="#A80036" points="831.5,171.6953,841.5,175.6953,831.5,179.6953,835.5,175.6953" style="stroke: #A80036; stroke-width: 1.0;"/><line style="stroke: #A80036; stroke-width: 1.0;" x1="528.5" x2="837.5" y1="175.6953" y2="175.6953"/><text fill="#000000" font-family="sans-serif" font-size="13" lengthAdjust="spacingAndGlyphs" textLength="291" x="535.5" y="170.6294">isDragging = true, dragPayload = (node,port)</text><polygon fill="#A80036" points="886,185.6953,896,189.6953,886,193.6953,890,189.6953" style="stroke: #A80036; stroke-width: 1.0;"/><line style="stroke: #A80036; stroke-width: 1.0;" x1="843.5" x2="892" y1="189.6953" y2="189.6953"/><polygon fill="#A80036" points="305.5,214.8281,315.5,218.8281,305.5,222.8281,309.5,218.8281" style="stroke: #A80036; stroke-width: 1.0;"/><line style="stroke: #A80036; stroke-width: 1.0;" x1="27" x2="311.5" y1="218.8281" y2="218.8281"/><text fill="#000000" font-family="sans-serif" font-size="13" lengthAdjust="spacingAndGlyphs" textLength="79" x="34" y="213.7622">Drag mouse</text><polygon fill="#A80036" points="516.5,243.9609,526.5,247.9609,516.5,251.9609,520.5,247.9609" style="stroke: #A80036; stroke-width: 1.0;"/><line style="stroke: #A80036; stroke-width: 1.0;" x1="317.5" x2="522.5" y1="247.9609" y2="247.9609"/><text fill="#000000" font-family="sans-serif" font-size="13" lengthAdjust="spacingAndGlyphs" textLength="187" x="324.5" y="242.895">DRAG_MOUSE_POSITION(x,y)</text><polygon fill="#A80036" points="831.5,273.0938,841.5,277.0938,831.5,281.0938,835.5,277.0938" style="stroke: #A80036; stroke-width: 1.0;"/><line style="stroke: #A80036; stroke-width: 1.0;" x1="528.5" x2="837.5" y1="277.0938" y2="277.0938"/><text fill="#000000" font-family="sans-serif" font-size="13" lengthAdjust="spacingAndGlyphs" textLength="99" x="535.5" y="272.0278">dragPos = (x,y)</text><polygon fill="#A80036" points="886,287.0938,896,291.0938,886,295.0938,890,291.0938" style="stroke: #A80036; stroke-width: 1.0;"/><line style="stroke: #A80036; stroke-width: 1.0;" x1="843.5" x2="892" y1="291.0938" y2="291.0938"/><polygon fill="#A80036" points="214,316.2266,224,320.2266,214,324.2266,218,320.2266" style="stroke: #A80036; stroke-width: 1.0;"/><line style="stroke: #A80036; stroke-width: 1.0;" x1="27" x2="220" y1="320.2266" y2="320.2266"/><text fill="#000000" font-family="sans-serif" font-size="13" lengthAdjust="spacingAndGlyphs" textLength="175" x="34" y="315.1606">Release mouse over in port</text><polygon fill="#A80036" points="516.5,345.3594,526.5,349.3594,516.5,353.3594,520.5,349.3594" style="stroke: #A80036; stroke-width: 1.0;"/><line style="stroke: #A80036; stroke-width: 1.0;" x1="226" x2="522.5" y1="349.3594" y2="349.3594"/><text fill="#000000" font-family="sans-serif" font-size="13" lengthAdjust="spacingAndGlyphs" textLength="185" x="233" y="344.2935">INPORT_DROP(nodeIx, portIx)</text><polygon fill="#A80036" points="831.5,374.4922,841.5,378.4922,831.5,382.4922,835.5,378.4922" style="stroke: #A80036; stroke-width: 1.0;"/><line style="stroke: #A80036; stroke-width: 1.0;" x1="528.5" x2="837.5" y1="378.4922" y2="378.4922"/><text fill="#000000" font-family="sans-serif" font-size="13" lengthAdjust="spacingAndGlyphs" textLength="224" x="535.5" y="373.4263">isDragging = false, Add connection</text><polygon fill="#A80036" points="886,388.4922,896,392.4922,886,396.4922,890,392.4922" style="stroke: #A80036; stroke-width: 1.0;"/><line style="stroke: #A80036; stroke-width: 1.0;" x1="843.5" x2="892" y1="392.4922" y2="392.4922"/><!--MD5=[67968eb20072b15cfb774cedde24f7df]
@startuml
actor User
entity InOutNode
entity "Graph Area"
control Reducer
database Store
control React
User -> InOutNode : Click on out port
InOutNode -> Reducer : OUTPORT_DRAG_STARTED(nodeIx, portIx)
Reducer -> Store : isDragging = true, dragPayload = (node,port)
Store -> React
User -> "Graph Area" : Drag mouse
"Graph Area" -> Reducer : DRAG_MOUSE_POSITION(x,y)
Reducer -> Store : dragPos = (x,y)
Store -> React
User -> InOutNode : Release mouse over in port
InOutNode -> Reducer : INPORT_DROP(nodeIx, portIx)
Reducer -> Store : isDragging = false, Add connection
Store -> React
@enduml

PlantUML version 1.2020.00(Sat Jan 11 12:30:53 UTC 2020)
(GPL source distribution)
Java Runtime: Java(TM) SE Runtime Environment
JVM: Java HotSpot(TM) 64-Bit Server VM
Java Version: 1.7.0_25-b15
Operating System: Linux
Default Encoding: UTF-8
Language: en
Country: US
--></g></svg>